<?xml version="1.0" encoding="UTF-8"?>
<!DOCTYPE svg PUBLIC "-//W3C//DTD SVG 1.1//EN" "http://www.w3.org/Graphics/SVG/1.1/DTD/svg11.dtd">
<!-- Creator: CorelDRAW X8 -->
<svg xmlns="http://www.w3.org/2000/svg" xml:space="preserve" width="32.778mm" height="9.0262mm" version="1.1" style="shape-rendering:geometricPrecision; text-rendering:geometricPrecision; image-rendering:optimizeQuality; fill-rule:evenodd; clip-rule:evenodd"
viewBox="0 0 352956 97195"
 xmlns:xlink="http://www.w3.org/1999/xlink">
 <defs>
  <style type="text/css">
   <![CDATA[
    .str0 {stroke:#FEFEFE;stroke-width:2735.09}
    .fil2 {fill:none}
    .fil3 {fill:#FEFEFE}
    .fil4 {fill:#FEFEFE}
    .fil1 {fill:#FFDE5D}
    .fil0 {fill:white}
    .fil5 {fill:#FFDE5D;fill-rule:nonzero}
   ]]>
  </style>
 </defs>
 <g id="Capa_x0020_1">
  <metadata id="CorelCorpID_0Corel-Layer"/>
  <g id="_2497944154336">
   <polygon class="fil0" points="0,48798 48049,0 58653,11927 22871,48370 59105,85268 47839,97195 "/>
   <polygon class="fil1" points="34978,49346 65607,19013 95952,49131 65323,79462 "/>
   <rect class="fil2 str0" transform="matrix(0.390891 -0.390891 0.392347 0.388121 45650.2 49839.5)" width="51967" height="49232"/>
  </g>
  <g id="_2497944156128">
   <g>
    <rect class="fil3" x="112778" y="16787" width="9117" height="39203"/>
    <polygon class="fil3" points="127821,16332 136027,16332 152248,41186 152437,16332 160642,16332 160642,55534 152437,55534 136294,31157 136027,55534 127821,55534 "/>
    <path class="fil4" d="M166113 35478c0,-12308 5927,-20057 18546,-20024 7750,21 11906,2457 14275,6348l-5014 5470c-1782,-2163 -4558,-4773 -8662,-4559 -6224,325 -9894,5573 -10940,10940 -834,8808 3151,12922 9573,14588 7115,-54 10382,-2807 10469,-8634l-9102 -27 0 -5927 10941 0 6382 -37 0 8243c-1774,7771 -7071,14132 -18234,14132 -10485,0 -18234,-6838 -18234,-20513z"/>
    <path class="fil4" d="M277258 55193l-8205 0 -2735 -8205 -15955 0 -3191 8205 -8881 0 16410 -39202 6944 0 15613 39202zm-23567 -15157l8150 0 -3838 -10930 -4312 10930z"/>
    <path class="fil4" d="M280075 55079l8206 0 289 -15349 12929 15349 10319 149 -13219 -15954c5150,-2637 8205,-6605 8205,-11852 0,-6838 -2531,-10435 -11853,-11396l-14586 0 -290 39053zm8661 -31909l4558 0c2177,69 3937,1575 4103,5013 100,2067 -1356,3721 -3191,5015l-5470 455 0 -10483z"/>
    <polygon class="fil4" points="203493,16332 213521,16332 221726,29095 229932,16332 239960,16332 226284,37301 226284,55534 217168,55534 217168,37301 "/>
    <path class="fil4" d="M312841 37558l0 -4103c1522,-9693 6751,-16345 17779,-18233l3190 0c11598,1919 15074,8957 17323,17322 0,9171 -4550,19032 -13356,22797 297,1240 1222,1881 2610,1812l6381 0c1397,-69 2393,-1198 3453,-2272l2735 5014c-1503,2120 -4161,3900 -6382,5014 -1368,0 -2776,331 -4103,0 -7293,-1823 -7749,-4103 -13219,-4103 -2323,0 -3647,457 -5015,1824l-1367 -1824c-125,-1964 1194,-3071 5925,-4558 -7293,-912 -15498,-8661 -15954,-18690zm19159 -13503c5766,0 10442,5102 10442,11396 0,6294 -4676,11395 -10442,11395 -5767,0 -10443,-5101 -10443,-11395 0,-6294 4676,-11396 10443,-11396z"/>
   </g>
   <path class="fil5" d="M147624 70434l0 11353 3532 0c5529,0 7391,-2553 7391,-5617 0,-2025 -932,-4426 -4189,-5344 -1232,-358 -2354,-392 -3697,-392l-3037 0zm3612 9277l0 -7285c740,17 1260,85 1835,391 1451,749 1862,2213 1862,3336 0,1413 -712,3574 -3586,3558l-111 0z"/>
   <polygon id="1" class="fil5" points="164595,81787 164595,70434 160983,70434 160983,81787 "/>
   <path id="2" class="fil5" d="M174970 70809c-1068,-375 -1970,-545 -3203,-545 -3094,0 -4763,1565 -4763,3353 0,1651 1315,2468 3366,3353 603,255 1617,630 1944,1055 137,188 193,375 193,579 0,783 -905,1260 -2137,1260 -1012,0 -1862,-273 -2682,-613l0 2144c931,392 2026,579 3148,579 3312,0 5201,-1548 5201,-3506 0,-3166 -5474,-3131 -5474,-5089 0,-664 740,-1107 1807,-1107 1012,0 1862,341 2600,732l0 -2195z"/>
   <polygon id="3" class="fil5" points="185454,81787 185454,79693 181757,79693 181757,77140 184962,77140 184962,74995 181757,74995 181757,72544 185400,72544 185400,70434 178145,70434 178145,81787 "/>
   <path id="4" class="fil5" d="M199168 81787l0 -11353 -3667 0 0 5328c0,510 108,1021 273,1531l-4489 -6859 -3422 0 0 11353 3613 0 0 -5549c0,-425 -54,-868 -191,-1293l4489 6842 3394 0zm-3531 -14399c-164,289 -109,595 -876,595 -957,0 -1725,-578 -2875,-578 -1860,0 -2161,1090 -2326,2008l1779 0c83,-272 301,-477 767,-477 876,0 1861,528 2956,528 1779,0 2164,-1141 2381,-2009l-1806 -67z"/>
   <path id="5" class="fil5" d="M214416 76119c0,-1430 -246,-3080 -1641,-4272 -1097,-936 -2875,-1583 -4765,-1583 -1860,0 -3695,630 -4763,1583 -1395,1225 -1642,2808 -1642,4272 0,1429 247,3064 1642,4255 1094,936 2875,1600 4763,1600 1890,0 3696,-664 4765,-1600 1395,-1225 1641,-2791 1641,-4255zm-3832 -51c0,1038 -191,3745 -2574,3745 -2382,0 -2571,-2707 -2571,-3745 0,-1038 189,-3744 2571,-3744 2383,0 2574,2706 2574,3744z"/>
   <path id="6" class="fil5" d="M234044 70434l-4051 0 -1259 2451c-274,527 -466,834 -793,1702 -220,-510 -575,-1225 -823,-1685l-1341 -2468 -3969 0 4380 6502 0 4851 3612 0 0 -4851 4244 -6502z"/>
   <path id="7" class="fil5" d="M250715 79199c-740,427 -1560,545 -2163,545 -985,0 -1642,-255 -2053,-545 -1286,-884 -1286,-2689 -1286,-2978 0,-1464 520,-2637 1505,-3251 410,-255 1040,-511 1999,-511 575,0 1314,103 1998,495l0 -2315c-712,-205 -1451,-324 -2272,-324 -1232,0 -2874,204 -4380,1141 -2409,1514 -2628,3693 -2628,4834 0,2399 1176,3794 2463,4594 1233,767 2573,1022 4326,1022 986,0 1697,-85 2491,-357l0 -2350z"/>
   <path id="8" class="fil5" d="M264620 81787l-4379 -11353 -3778 0 -4271 11353 3614 0 657 -1906 3641 0 686 1906 3830 0zm-7610 -3659c521,-1583 1041,-3166 1206,-4766 81,493 191,1004 301,1498 274,1105 656,2178 1039,3268l-2546 0z"/>
   <polygon id="9" class="fil5" points="273519,81787 273519,79659 269740,79659 269740,70434 266127,70434 266127,81787 "/>
   <polygon id="10" class="fil5" points="278745,81787 278745,70434 275133,70434 275133,81787 "/>
   <path id="11" class="fil5" d="M281593 70434l0 11353 3531 0c5530,0 7392,-2553 7392,-5617 0,-2025 -932,-4426 -4189,-5344 -1232,-358 -2354,-392 -3697,-392l-3037 0zm3612 9277l0 -7285c740,17 1260,85 1835,391 1451,749 1862,2213 1862,3336 0,1413 -713,3574 -3586,3558l-111 0z"/>
   <path id="12" class="fil5" d="M305682 81787l-4381 -11353 -3776 0 -4272 11353 3615 0 657 -1906 3640 0 685 1906 3832 0zm-7610 -3659c521,-1583 1040,-3166 1205,-4766 82,493 191,1004 301,1498 274,1105 657,2178 1040,3268l-2546 0z"/>
   <path id="13" class="fil5" d="M307188 70434l0 11353 3532 0c5530,0 7391,-2553 7391,-5617 0,-2025 -931,-4426 -4190,-5344 -1230,-358 -2352,-392 -3695,-392l-3038 0zm3613 9277l0 -7285c740,17 1259,85 1834,391 1451,749 1862,2213 1862,3336 0,1413 -712,3574 -3585,3558l-111 0z"/>
  </g>
 </g>
</svg>
