<?xml version="1.0" encoding="UTF-8"?>
<!DOCTYPE svg PUBLIC "-//W3C//DTD SVG 1.1//EN" "http://www.w3.org/Graphics/SVG/1.1/DTD/svg11.dtd">
<!-- Creator: CorelDRAW X8 -->
<svg xmlns="http://www.w3.org/2000/svg" xml:space="preserve" width="22.3046mm" height="7.1727mm" version="1.1" style="shape-rendering:geometricPrecision; text-rendering:geometricPrecision; image-rendering:optimizeQuality; fill-rule:evenodd; clip-rule:evenodd"
viewBox="0 0 2260 727"
 xmlns:xlink="http://www.w3.org/1999/xlink">
 <defs>
  <style type="text/css">
   <![CDATA[
    .fil0 {fill:#FEFEFE}
    .fil1 {fill:#FEFEFE}
    .fil2 {fill:#FFDE5D;fill-rule:nonzero}
   ]]>
  </style>
 </defs>
 <g id="Capa_x0020_1">
  <metadata id="CorelCorpID_0Corel-Layer"/>
  <rect class="fil0" y="15" width="85.79" height="368.886"/>
  <polygon class="fil0" points="142,10 219,10 371,244 373,10 450,10 450,379 373,379 221,150 219,379 142,379 "/>
  <path class="fil1" d="M502 191c0,-116 56,-189 174,-189 73,0 112,23 135,60l-47 51c-17,-20 -43,-45 -82,-43 -59,4 -93,53 -103,103 -8,83 30,122 90,138 67,-1 98,-27 99,-82l-86 0 0 -56 103 0 60 0 0 78c-17,73 -67,133 -172,133 -98,0 -171,-65 -171,-193z"/>
  <path class="fil1" d="M1548 376l-78 0 -25 -77 -150 0 -30 77 -84 0 154 -369 66 0 147 369zm-222 -143l77 0 -36 -102 -41 102z"/>
  <path class="fil1" d="M1574 375l77 0 3 -144 122 144 97 1 -125 -150c49,-24 78,-62 78,-111 0,-65 -24,-98 -112,-107l-137 0 -3 367zm82 -300l43 0c20,0 37,15 38,47 1,19 -13,35 -30,47l-51 4 0 -98z"/>
  <polygon class="fil1" points="854,10 948,10 1025,131 1102,10 1197,10 1068,208 1068,379 982,379 982,208 "/>
  <path class="fil1" d="M1883 210l0 -38c14,-92 63,-154 167,-172l30 0c109,18 142,84 163,163 0,86 -43,179 -126,215 3,11 12,17 25,17l60 0c13,-1 22,-12 32,-22l26 47c-14,20 -39,37 -60,48 -13,0 -26,3 -39,0 -68,-18 -73,-39 -124,-39 -22,0 -34,4 -47,17l-13 -17c-1,-19 11,-29 56,-43 -69,-9 -146,-81 -150,-176zm180 -127c54,0 98,48 98,107 0,60 -44,108 -98,108 -54,0 -98,-48 -98,-108 0,-59 44,-107 98,-107z"/>
  <path class="fil2" d="M317 618l0 107 34 0c52,0 69,-24 69,-53 0,-19 -9,-41 -39,-50 -12,-4 -22,-4 -35,-4l-29 0zm34 87l0 -68c7,0 12,1 18,4 13,7 17,20 17,31 0,13 -7,34 -34,33l-1 0z"/>
  <polygon id="1" class="fil2" points="477,725 477,618 443,618 443,725 "/>
  <path id="2" class="fil2" d="M575 622c-10,-4 -19,-5 -30,-5 -30,0 -45,14 -45,31 0,16 12,23 31,32 6,2 16,6 19,10 1,1 2,3 2,5 0,7 -9,12 -21,12 -9,0 -17,-3 -25,-6l0 20c9,4 19,6 30,6 31,0 49,-15 49,-33 0,-30 -52,-30 -52,-48 0,-6 7,-11 17,-11 10,0 18,4 25,7l0 -20z"/>
  <polygon id="3" class="fil2" points="673,725 673,705 639,705 639,681 669,681 669,661 639,661 639,638 673,638 673,618 605,618 605,725 "/>
  <path id="4" class="fil2" d="M802 725l0 -107 -34 0 0 50c0,5 1,10 2,15l-42 -65 -32 0 0 107 34 0 0 -52c0,-4 0,-8 -2,-12l42 64 32 0zm-33 -135c-1,2 -1,5 -8,5 -9,0 -16,-5 -27,-5 -18,0 -20,10 -22,19l17 0c1,-3 3,-5 7,-5 8,0 17,5 28,5 17,0 20,-11 22,-19l-17 0z"/>
  <path id="5" class="fil2" d="M946 672c0,-14 -2,-29 -16,-41 -10,-8 -27,-14 -44,-14 -18,0 -35,5 -45,14 -13,12 -16,27 -16,41 0,13 3,28 16,40 10,9 27,15 45,15 17,0 34,-6 44,-15 14,-12 16,-27 16,-40zm-36 -1c0,10 -2,35 -24,35 -23,0 -25,-25 -25,-35 0,-10 2,-35 25,-35 22,0 24,25 24,35z"/>
  <path id="6" class="fil2" d="M1131 618l-39 0 -11 23c-3,5 -5,8 -8,16 -2,-5 -5,-11 -8,-16l-12 -23 -38 0 42 61 0 46 34 0 0 -46 40 -61z"/>
  <path id="7" class="fil2" d="M1287 701c-7,4 -14,5 -20,5 -9,0 -15,-3 -19,-5 -12,-9 -12,-26 -12,-28 0,-14 5,-25 14,-31 4,-2 10,-5 19,-5 5,0 12,1 18,5l0 -22c-6,-2 -13,-3 -21,-3 -12,0 -27,2 -41,11 -23,14 -25,35 -25,45 0,23 11,36 23,44 12,7 25,9 41,9 9,0 16,-1 23,-3l0 -22z"/>
  <path id="8" class="fil2" d="M1418 725l-41 -107 -35 0 -41 107 34 0 7 -18 34 0 6 18 36 0zm-71 -34c5,-15 9,-30 11,-45 1,4 2,9 3,14 2,10 6,20 10,31l-24 0z"/>
  <polygon id="9" class="fil2" points="1502,725 1502,705 1466,705 1466,618 1432,618 1432,725 "/>
  <polygon id="10" class="fil2" points="1551,725 1551,618 1517,618 1517,725 "/>
  <path id="11" class="fil2" d="M1578 618l0 107 33 0c52,0 70,-24 70,-53 0,-19 -9,-41 -40,-50 -11,-4 -22,-4 -34,-4l-29 0zm34 87l0 -68c7,0 12,1 17,4 14,7 18,20 18,31 0,13 -7,34 -34,33l-1 0z"/>
  <path id="12" class="fil2" d="M1805 725l-42 -107 -35 0 -40 107 34 0 6 -18 34 0 7 18 36 0zm-72 -34c5,-15 10,-30 11,-45 1,4 2,9 3,14 3,10 6,20 10,31l-24 0z"/>
  <path id="13" class="fil2" d="M1819 618l0 107 33 0c52,0 70,-24 70,-53 0,-19 -9,-41 -40,-50 -11,-4 -22,-4 -35,-4l-28 0zm34 87l0 -68c7,0 12,1 17,4 14,7 18,20 18,31 0,13 -7,34 -34,33l-1 0z"/>
 </g>
</svg>
